<svg width="37" height="37" viewBox="0 0 37 37" fill="none" xmlns="http://www.w3.org/2000/svg">
<path d="M18.3196 4.63579L18.5 4.625C18.8776 4.62505 19.2421 4.76368 19.5242 5.0146C19.8064 5.26552 19.9867 5.61128 20.0309 5.98629L20.0417 6.16667V16.9583H30.8333C31.2109 16.9584 31.5754 17.097 31.8576 17.3479C32.1398 17.5989 32.32 17.9446 32.3642 18.3196L32.375 18.5C32.375 18.8776 32.2363 19.2421 31.9854 19.5242C31.7345 19.8064 31.3887 19.9867 31.0137 20.0309L30.8333 20.0417H20.0417V30.8333C20.0416 31.2109 19.903 31.5754 19.6521 31.8576C19.4011 32.1398 19.0554 32.32 18.6804 32.3642L18.5 32.375C18.1224 32.375 17.7579 32.2363 17.4758 31.9854C17.1936 31.7345 17.0133 31.3887 16.9691 31.0137L16.9583 30.8333V20.0417H6.16667C5.78906 20.0416 5.42461 19.903 5.14243 19.6521C4.86025 19.4011 4.67997 19.0554 4.63579 18.6804L4.625 18.5C4.62505 18.1224 4.76368 17.7579 5.0146 17.4758C5.26552 17.1936 5.61128 17.0133 5.98629 16.9691L6.16667 16.9583H16.9583V6.16667C16.9584 5.78906 17.097 5.42461 17.3479 5.14243C17.5989 4.86025 17.9446 4.67997 18.3196 4.63579L18.5 4.625L18.3196 4.63579Z" fill="#9B9CA9"/>
</svg>
