<svg width="37" height="37" viewBox="0 0 37 37" fill="none" xmlns="http://www.w3.org/2000/svg">
<path d="M16.2646 3.90352C16.8901 3.37631 17.6819 3.08716 18.5 3.08716C19.3181 3.08716 20.1099 3.37631 20.7354 3.90352L31.1417 12.6787C31.9233 13.3385 32.375 14.3082 32.375 15.3304V30.4433C32.375 31.1588 32.0908 31.8451 31.5848 32.351C31.0788 32.857 30.3926 33.1412 29.6771 33.1412H24.2812C23.5657 33.1412 22.8795 32.857 22.3735 32.351C21.8676 31.8451 21.5833 31.1588 21.5833 30.4433V21.9641C21.5833 21.8619 21.5427 21.7639 21.4704 21.6916C21.3982 21.6193 21.3001 21.5787 21.1979 21.5787H15.8021C15.6999 21.5787 15.6018 21.6193 15.5296 21.6916C15.4573 21.7639 15.4167 21.8619 15.4167 21.9641V30.4433C15.4167 31.1588 15.1324 31.8451 14.6265 32.351C14.1205 32.857 13.4343 33.1412 12.7188 33.1412H7.32292C6.96862 33.1412 6.6178 33.0714 6.29047 32.9359C5.96314 32.8003 5.66573 32.6016 5.4152 32.351C5.16468 32.1005 4.96595 31.8031 4.83037 31.4758C4.69478 31.1484 4.625 30.7976 4.625 30.4433V15.3304C4.625 14.3082 5.07671 13.3385 5.85833 12.6787L16.2646 3.90352ZM19.2446 5.67182C19.0362 5.49635 18.7725 5.40013 18.5 5.40013C18.2275 5.40013 17.9638 5.49635 17.7554 5.67182L7.34913 14.4454C7.22035 14.5538 7.11679 14.6891 7.04569 14.8416C6.9746 14.9942 6.93767 15.1605 6.9375 15.3288V30.4418C6.9375 30.6545 7.11017 30.8272 7.32292 30.8272H12.7188C12.821 30.8272 12.919 30.7866 12.9913 30.7143C13.0636 30.642 13.1042 30.544 13.1042 30.4418V21.9626C13.1042 20.4718 14.3128 19.2647 15.8021 19.2647H21.1979C22.6872 19.2647 23.8958 20.4718 23.8958 21.9626V30.4418C23.8958 30.6545 24.0685 30.8272 24.2812 30.8272H29.6771C29.7793 30.8272 29.8773 30.7866 29.9496 30.7143C30.0219 30.642 30.0625 30.544 30.0625 30.4418V15.3304C30.0623 15.162 30.0254 14.9958 29.9543 14.8432C29.8832 14.6906 29.7797 14.5554 29.6509 14.447L19.2446 5.67182Z" fill="white"/>
</svg>
