<svg width="37" height="37" viewBox="0 0 37 37" fill="none" xmlns="http://www.w3.org/2000/svg">
<path d="M33.4156 22.6083L31.049 20.5849C31.161 19.8983 31.2188 19.1974 31.2188 18.4964C31.2188 17.7954 31.161 17.0944 31.049 16.4079L33.4156 14.3845C33.5942 14.2317 33.7219 14.0281 33.782 13.8009C33.842 13.5737 33.8314 13.3336 33.7517 13.1126L33.7192 13.0186C33.0676 11.1976 32.092 9.50955 30.8394 8.03593L30.7743 7.96005C30.6224 7.78138 30.4199 7.65295 30.1935 7.59167C29.9671 7.53039 29.7274 7.53915 29.5061 7.61679L26.5685 8.66103C25.4845 7.77216 24.274 7.07118 22.966 6.57978L22.3988 3.50848C22.356 3.27739 22.2439 3.06478 22.0773 2.89892C21.9108 2.73305 21.6978 2.62177 21.4665 2.57987L21.369 2.5618C19.4865 2.22216 17.5064 2.22216 15.6239 2.5618L15.5263 2.57987C15.295 2.62177 15.082 2.73305 14.9155 2.89892C14.749 3.06478 14.6369 3.27739 14.5941 3.50848L14.0232 6.59423C12.7256 7.08574 11.5172 7.78634 10.446 8.66825L7.48675 7.61679C7.26549 7.53853 7.02566 7.52946 6.79912 7.59077C6.57259 7.65209 6.37007 7.78088 6.21849 7.96005L6.15345 8.03593C4.90234 9.5106 3.92686 11.1984 3.27366 13.0186L3.24114 13.1126C3.07855 13.5643 3.21224 14.0701 3.57718 14.3845L5.97279 16.4296C5.86077 17.1089 5.80657 17.8026 5.80657 18.4928C5.80657 19.1865 5.86077 19.8803 5.97279 20.556L3.57718 22.6011C3.39867 22.7539 3.27091 22.9574 3.21088 23.1846C3.15085 23.4118 3.16141 23.6519 3.24114 23.873L3.27366 23.9669C3.92767 25.788 4.89603 27.4682 6.15345 28.9496L6.21849 29.0255C6.37044 29.2042 6.57297 29.3326 6.79937 29.3939C7.02577 29.4552 7.26542 29.4464 7.48675 29.3688L10.446 28.3173C11.5228 29.2026 12.726 29.9035 14.0232 30.3913L14.5941 33.4771C14.6369 33.7082 14.749 33.9208 14.9155 34.0866C15.082 34.2525 15.295 34.3638 15.5263 34.4057L15.6239 34.4237C17.5237 34.7652 19.4692 34.7652 21.369 34.4237L21.4665 34.4057C21.6978 34.3638 21.9108 34.2525 22.0773 34.0866C22.2439 33.9208 22.356 33.7082 22.3988 33.4771L22.966 30.4058C24.2735 29.9157 25.4908 29.2124 26.5685 28.3245L29.5061 29.3688C29.7273 29.447 29.9672 29.4561 30.1937 29.3948C30.4202 29.3335 30.6228 29.2047 30.7743 29.0255L30.8394 28.9496C32.0968 27.4646 33.0652 25.788 33.7192 23.9669L33.7517 23.873C33.9143 23.4285 33.7806 22.9227 33.4156 22.6083ZM28.4835 16.8343C28.5739 17.3799 28.6208 17.9399 28.6208 18.5C28.6208 19.0601 28.5739 19.6201 28.4835 20.1657L28.245 21.6147L30.9442 23.9235C30.535 24.8662 30.0185 25.7586 29.4049 26.5829L26.0518 25.3941L24.9172 26.3264C24.0536 27.0346 23.0925 27.591 22.0519 27.9813L20.6752 28.498L20.0284 32.0028C19.0079 32.1185 17.9777 32.1185 16.9572 32.0028L16.3104 28.4907L14.9446 27.9668C13.9148 27.5766 12.9573 27.0201 12.1009 26.3155L10.9663 25.3797L7.59154 26.5793C6.97728 25.7519 6.46419 24.8594 6.05228 23.9199L8.7803 21.5894L8.54544 20.144C8.45872 19.6057 8.41175 19.0492 8.41175 18.5C8.41175 17.9472 8.45511 17.3943 8.54544 16.856L8.7803 15.4106L6.05228 13.0801C6.46058 12.137 6.97728 11.2481 7.59154 10.4207L10.9663 11.6203L12.1009 10.6845C12.9573 9.97988 13.9148 9.42343 14.9446 9.0332L16.314 8.5165L16.9608 5.00438C17.9761 4.88876 19.0131 4.88876 20.0321 5.00438L20.6788 8.50927L22.0555 9.02597C23.0925 9.4162 24.0573 9.97265 24.9208 10.6809L26.0554 11.6131L29.4085 10.4243C30.0228 11.2518 30.5359 12.1442 30.9478 13.0837L28.2487 15.3926L28.4835 16.8343ZM18.5 11.7793C14.9879 11.7793 12.1407 14.6266 12.1407 18.1387C12.1407 21.6508 14.9879 24.4981 18.5 24.4981C22.0121 24.4981 24.8594 21.6508 24.8594 18.1387C24.8594 14.6266 22.0121 11.7793 18.5 11.7793ZM21.3617 21.0004C20.9864 21.3768 20.5403 21.6753 20.0492 21.8787C19.5581 22.0821 19.0316 22.1864 18.5 22.1856C17.4197 22.1856 16.4043 21.7628 15.6383 21.0004C15.2619 20.6251 14.9634 20.179 14.76 19.6879C14.5566 19.1967 14.4523 18.6702 14.4532 18.1387C14.4532 17.0583 14.8759 16.043 15.6383 15.277C16.4043 14.5109 17.4197 14.0918 18.5 14.0918C19.5804 14.0918 20.5957 14.5109 21.3617 15.277C21.7382 15.6523 22.0367 16.0984 22.2401 16.5895C22.4434 17.0806 22.5477 17.6071 22.5469 18.1387C22.5469 19.219 22.1241 20.2344 21.3617 21.0004Z" fill="#9B9CA9"/>
</svg>
