<svg width="23" height="32" viewBox="0 0 23 32" fill="none" xmlns="http://www.w3.org/2000/svg">
<path d="M21.5625 31.3241H23V28.2592H21.5625V26.7268C21.5598 24.8652 21.1035 23.0363 20.2384 21.4192C19.3734 19.8021 18.1291 18.4522 16.6276 17.5017C16.1173 17.1799 15.8125 16.6635 15.8125 16.121V15.8789C15.8125 15.3364 16.1173 14.82 16.6261 14.4998C18.128 13.5491 19.3725 12.199 20.2378 10.5817C21.1031 8.96429 21.5596 7.13507 21.5625 5.27313V3.74072H23V0.675903H0V3.74072H1.4375V5.27313C1.44042 7.13507 1.89688 8.96429 2.7622 10.5817C3.62753 12.199 4.87204 13.5491 6.37388 14.4998C6.88275 14.82 7.1875 15.3349 7.1875 15.8789V16.121C7.1875 16.6635 6.88275 17.1799 6.37388 17.5002C4.87204 18.4508 3.62753 19.8009 2.7622 21.4183C1.89688 23.0357 1.44042 24.8649 1.4375 26.7268V28.2592H0V31.3241H21.5625ZM18.6875 3.74072V5.27313C18.6853 6.93157 18.1789 8.54459 17.2443 9.87035H5.75575C4.82107 8.54459 4.31468 6.93157 4.3125 5.27313V3.74072H18.6875ZM7.83437 20.1405C9.23019 19.2609 10.0625 17.7592 10.0625 16.121V16H12.9375V16.121C12.9375 17.7576 13.7698 19.2609 15.1671 20.1405C16.4587 20.96 17.4756 22.192 18.0737 23.662H4.92631C5.5245 22.1916 6.54201 20.9595 7.83437 20.1405Z" fill="#606060"/>
</svg>
