<svg width="280" height="262" viewBox="0 0 280 262" fill="none" xmlns="http://www.w3.org/2000/svg">
<mask id="mask0_60_2" style="mask-type:alpha" maskUnits="userSpaceOnUse" x="0" y="0" width="280" height="262">
<rect x="280" y="262" width="280" height="262" transform="rotate(-180 280 262)" fill="white"/>
</mask>
<g mask="url(#mask0_60_2)">
<path d="M-48.035 332.951C-51.9446 328.934 -48.2988 322.281 -42.8093 323.415V323.415C-24.613 327.127 11.7001 334.627 24.0858 317.622C36.5191 300.665 24.9773 259.155 27.0845 231.589C29.1918 204.023 44.8529 190.303 77.6527 194.273C110.453 198.243 160.296 219.803 175.108 205.292C189.873 190.731 169.56 140.049 164.672 105.296C159.784 70.5427 170.322 51.7181 194.128 46.447C217.982 41.2249 255.057 49.5074 271.059 36.218C287.013 22.8797 281.848 -12.0794 279.226 -29.5204V-29.5204C278.416 -35.0018 285.102 -38.3085 288.967 -34.3378L455.49 136.76C459.473 140.852 459.384 147.399 455.292 151.382V151.382C447.921 158.556 433.1 172.98 418.24 187.443C403.38 201.905 388.48 216.407 373.62 230.87C358.76 245.333 343.94 259.757 329.08 274.22C314.219 288.682 299.32 303.184 284.46 317.647C269.599 332.11 254.779 346.534 239.919 360.997C225.059 375.459 210.159 389.961 195.299 404.424C180.439 418.887 165.618 433.311 150.758 447.774C135.898 462.236 120.998 476.738 113.509 484.027V484.027C109.394 488.032 102.813 487.942 98.8082 483.828L-48.035 332.951Z" fill="url(#paint0_linear_60_2)"/>
</g>
<defs>
<linearGradient id="paint0_linear_60_2" x1="153.466" y1="11.3246" x2="149.938" y2="259.654" gradientUnits="userSpaceOnUse">
<stop stop-color="#00A0F4"/>
<stop offset="1" stop-color="#C200A2"/>
</linearGradient>
</defs>
</svg>
