<svg width="229" height="267" viewBox="0 0 229 267" fill="none" xmlns="http://www.w3.org/2000/svg">
<mask id="mask0_53_28" style="mask-type:alpha" maskUnits="userSpaceOnUse" x="0" y="0" width="229" height="267">
<rect width="229" height="267" fill="white"/>
</mask>
<g mask="url(#mask0_53_28)">
<path d="M286.501 -52.6264C290.411 -48.6094 286.765 -41.9567 281.276 -43.0905V-43.0905C263.079 -46.8021 226.766 -54.3023 214.38 -37.2971C201.947 -20.3407 213.489 21.17 211.382 48.736C209.275 76.3021 193.613 90.0212 160.814 86.0515C128.014 82.0819 78.1704 60.5212 63.3579 75.033C48.593 89.5936 68.9064 140.275 73.7942 175.029C78.682 209.782 68.1442 228.607 44.338 233.878C20.4843 239.1 -16.5903 230.817 -32.5925 244.107C-48.547 257.445 -43.3817 292.404 -40.7594 309.845V309.845C-39.9495 315.326 -46.6358 318.633 -50.5004 314.662L-217.023 143.565C-221.007 139.472 -220.918 132.926 -216.825 128.943V128.943C-209.455 121.769 -194.634 107.345 -179.774 92.882C-164.914 78.4191 -150.014 63.9177 -135.154 49.4549C-120.294 34.9921 -105.473 20.5678 -90.6133 6.10496C-75.7532 -8.35787 -60.8534 -22.8593 -45.9933 -37.3221C-31.1332 -51.7849 -16.3127 -66.2092 -1.45255 -80.672C13.4076 -95.1349 28.3073 -109.636 43.1674 -124.099C58.0276 -138.562 72.8481 -152.986 87.7082 -167.449C102.568 -181.912 117.468 -196.413 124.958 -203.703V-203.703C129.072 -207.707 135.654 -207.618 139.658 -203.503L286.501 -52.6264Z" fill="url(#paint0_linear_53_28)"/>
</g>
<defs>
<linearGradient id="paint0_linear_53_28" x1="85" y1="269" x2="88.528" y2="20.6709" gradientUnits="userSpaceOnUse">
<stop stop-color="#00A0F4"/>
<stop offset="1" stop-color="#C200A2"/>
</linearGradient>
</defs>
</svg>
